HIERARCHY
ROOT Hips
{
	OFFSET 0.000000 0.000000 0.000000
	CHANNELS 6 Xposition Yposition Zposition Xrotation Yrotation Zrotation
	JOINT Spine
	{
		OFFSET 0.000000 0.000000 0.102259
		CHANNELS 3 Xrotation Yrotation Zrotation
		JOINT Spine1
		{
			OFFSET 0.000000 -0.017757 0.100705
			CHANNELS 3 Xrotation Yrotation Zrotation
			JOINT Spine2
			{
				OFFSET 0.000000 -0.008912 0.101870
				CHANNELS 3 Xrotation Yrotation Zrotation
				JOINT Spine3
				{
					OFFSET 0.000000 0.000000 0.102259
					CHANNELS 3 Xrotation Yrotation Zrotation
					JOINT Neck
					{
						OFFSET 0.000000 0.013148 0.131476
						CHANNELS 3 Xrotation Yrotation Zrotation
						JOINT Neck1
						{
							OFFSET 0.000000 0.003817 0.043628
							CHANNELS 3 Xrotation Yrotation Zrotation
							JOINT Head
							{
								OFFSET 0.000000 0.007605 0.043130
								CHANNELS 3 Xrotation Yrotation Zrotation
								End Site
								{
									OFFSET 0.000000 0.000000 0.097916
								}
							}
						}
					}
					JOINT RightShoulder
					{
						OFFSET 0.000000 0.000000 0.092033
						CHANNELS 3 Xrotation Yrotation Zrotation
						JOINT RightArm
						{
							OFFSET 0.166682 0.000000 0.000000
							CHANNELS 3 Xrotation Yrotation Zrotation
							JOINT RightForeArm
							{
								OFFSET 0.339269 0.000000 0.000000
								CHANNELS 3 Xrotation Yrotation Zrotation
								JOINT RightHand
								{
									OFFSET 0.272813 0.000000 0.000000
									CHANNELS 3 Xrotation Yrotation Zrotation
									End Site
									{
										OFFSET 0.042337 0.031482 -0.014412
									}
									End Site
									{
										OFFSET 0.112899 -0.001086 0.000000
									}
								}
							}
						}
					}
					JOINT LeftShoulder
					{
						OFFSET 0.000000 0.000000 0.092033
						CHANNELS 3 Xrotation Yrotation Zrotation
						JOINT LeftArm
						{
							OFFSET -0.166682 0.000000 0.000000
							CHANNELS 3 Xrotation Yrotation Zrotation
							JOINT LeftForeArm
							{
								OFFSET -0.339269 0.000000 0.000000
								CHANNELS 3 Xrotation Yrotation Zrotation
								JOINT LeftHand
								{
									OFFSET -0.272813 0.000000 0.000000
									CHANNELS 3 Xrotation Yrotation Zrotation
									End Site
									{
										OFFSET -0.042337 0.031482 -0.014412
									}
									End Site
									{
										OFFSET -0.112899 -0.001086 0.000000
									}
								}
							}
						}
					}
				}
			}
		}
	}
	JOINT RightUpLeg
	{
		OFFSET 0.120852 0.000000 0.000000
		CHANNELS 3 Xrotation Yrotation Zrotation
		JOINT RightLeg
		{
			OFFSET 0.000000 0.000000 -0.533302
			CHANNELS 3 Xrotation Yrotation Zrotation
			JOINT RightFoot
			{
				OFFSET 0.000000 0.000000 -0.471812
				CHANNELS 3 Xrotation Yrotation Zrotation
				JOINT RightToeBase
				{
					OFFSET 0.000000 0.169608 -0.043308
					CHANNELS 3 Xrotation Yrotation Zrotation
					End Site
					{
						OFFSET 0.000000 0.063837 0.000000
					}
				}
			}
		}
	}
	JOINT LeftUpLeg
	{
		OFFSET -0.120852 0.000000 0.000000
		CHANNELS 3 Xrotation Yrotation Zrotation
		JOINT LeftLeg
		{
			OFFSET 0.000000 0.000000 -0.533302
			CHANNELS 3 Xrotation Yrotation Zrotation
			JOINT LeftFoot
			{
				OFFSET 0.000000 0.000000 -0.471812
				CHANNELS 3 Xrotation Yrotation Zrotation
				JOINT LeftToeBase
				{
					OFFSET 0.000000 0.169608 -0.043308
					CHANNELS 3 Xrotation Yrotation Zrotation
					End Site
					{
						OFFSET 0.000000 0.064424 0.000000
					}
				}
			}
		}
	}
}
MOTION
Frames: 6
Frame Time: 0.008333
-2.495692 1.084438 -4.104537 -104.622961 -6.109978 11.108552 -2.838373 -4.080911 4.110540 -2.840770 -3.707421 4.450132 -7.943558 -2.889998 4.643719 -7.943558 -2.889998 4.643719 6.466526 4.758184 -9.148297 -4.468530 -0.289059 -8.408808 -19.324988 -4.740328 -9.265370 0.382337 -6.313684 3.472022 -15.683953 15.243986 56.772221 -33.161897 -20.637637 28.342090 -0.000034 23.382350 6.643660 -0.472791 -6.097890 -4.441873 -28.769435 -57.171983 -34.866327 112.664938 -36.438682 13.930112 -179.999961 1.184974 -10.253617 13.988911 -2.612534 -22.487750 0.902100 0.000000 0.000000 -4.283793 13.354525 -4.598503 8.438400 0.000000 0.000000 24.490081 1.131658 -17.688564 -16.135600 0.000000 0.000000 8.341914 5.790191 12.855202 1.751700 0.000000 0.000000 
-2.495687 1.084468 -4.104476 -104.635984 -6.125780 11.118274 -2.848094 -4.050477 4.112791 -2.850662 -3.676914 4.449778 -7.947238 -2.895198 4.639735 -7.947238 -2.895198 4.639735 6.465911 4.763617 -9.155495 -4.458487 -0.287867 -8.415407 -19.299870 -4.743410 -9.271032 0.381521 -6.297519 3.473925 -15.623092 15.264327 56.745502 -33.166898 -20.619473 28.317373 0.000015 23.357305 6.626261 -0.474576 -6.091271 -4.463810 -28.786549 -57.166249 -34.895830 112.347311 -36.496296 13.739662 179.999966 1.154180 -10.224597 14.004384 -2.601371 -22.486639 0.910500 0.000000 0.000000 -4.288966 13.258889 -4.610248 8.348200 0.000000 0.000000 24.507685 1.140882 -17.691423 -16.126900 0.000000 0.000000 8.339523 5.778280 12.842862 1.743900 0.000000 0.000000 
-2.495699 1.084450 -4.104415 -104.649589 -6.120342 11.133023 -2.863583 -4.035001 4.115920 -2.866267 -3.661252 4.451504 -7.946087 -2.887818 4.640706 -7.946087 -2.887818 4.640706 6.465786 4.747891 -9.164919 -4.447953 -0.294684 -8.426312 -19.274209 -4.734703 -9.279945 0.384072 -6.349306 3.468551 -15.575957 15.368443 56.722799 -33.186309 -20.611044 28.290327 0.000025 23.347980 6.609002 -0.478367 -6.093804 -4.496937 -28.810049 -57.152353 -34.934673 112.052290 -36.546327 13.561750 179.999972 1.193395 -10.212239 14.018770 -2.614640 -22.474073 0.904000 0.000000 0.000000 -4.276062 13.328741 -4.645704 8.370000 0.000000 0.000000 24.522581 1.127916 -17.692841 -16.119900 0.000000 0.000000 8.329552 5.776575 12.832065 1.750800 0.000000 0.000000 
-2.495702 1.084453 -4.104349 -104.660883 -6.121505 11.146546 -2.890764 -4.022353 4.112046 -2.893530 -3.649013 4.446633 -7.929245 -2.885246 4.635789 -7.929245 -2.885246 4.635789 6.472798 4.771337 -9.168947 -4.432645 -0.286473 -8.427806 -19.247319 -4.747718 -9.281025 0.384681 -6.358166 3.469178 -15.526123 15.432443 56.705903 -33.225637 -20.611637 28.255181 -0.000060 23.335606 6.605004 -0.475337 -6.063788 -4.490565 -28.775500 -57.219743 -34.922072 111.880552 -36.597229 13.464862 -179.999963 1.136560 -10.280645 14.032980 -2.621037 -22.473093 0.900300 0.000000 0.000000 -4.279135 13.366046 -4.666675 8.416100 0.000000 0.000000 24.538648 1.119455 -17.705191 -16.117300 0.000000 0.000000 8.317939 5.784414 12.830537 1.733800 0.000000 0.000000 
-2.495712 1.084456 -4.104293 -104.673968 -6.125798 11.161277 -2.906612 -4.002842 4.104229 -2.909401 -3.630217 4.437021 -7.925180 -2.892071 4.624202 -7.925180 -2.892071 4.624202 6.480175 4.806128 -9.166406 -4.416804 -0.276289 -8.421299 -19.219849 -4.773844 -9.276062 0.385964 -6.339741 3.491198 -15.468520 15.441474 56.687200 -33.238553 -20.597159 28.227382 0.000020 23.341936 6.589402 -0.472126 -6.048185 -4.472295 -28.763410 -57.238231 -34.923914 111.799838 -36.636757 13.424034 179.999963 1.096250 -10.328011 14.047257 -2.624344 -22.474157 0.900000 0.000000 0.000000 -4.284086 13.355408 -4.681272 8.449300 0.000000 0.000000 24.556860 1.114366 -17.711561 -16.114600 0.000000 0.000000 8.307696 5.785714 12.820613 1.740100 0.000000 0.000000 
-2.495732 1.084443 -4.104230 -104.683848 -6.125831 11.170185 -2.926118 -3.985304 4.100633 -2.929050 -3.613093 4.431927 -7.917551 -2.895288 4.617707 -7.917551 -2.895288 4.617707 6.479859 4.822090 -9.168932 -4.403505 -0.271540 -8.422295 -19.187786 -4.784894 -9.276514 0.389175 -6.348184 3.515611 -15.404637 15.521475 56.647765 -33.277002 -20.604956 28.201095 -0.000043 23.357580 6.567720 -0.470922 -6.041733 -4.465415 -28.858831 -57.206141 -35.030914 111.815008 -36.623154 13.429835 -179.999997 1.125510 -10.289007 14.059452 -2.630385 -22.472469 0.895900 0.000000 0.000000 -4.277524 13.344363 -4.690925 8.438700 0.000000 0.000000 24.572127 1.109073 -17.704827 -16.115600 0.000000 0.000000 8.302977 5.778982 12.807791 1.752200 0.000000 0.000000 
